# xmcd
#
# Track frame offsets: 
#        150
#        14940
#        35360
#        51175
#        61382
#        77747
#        97257
#        117870
#        127465
#        143972
#        156132
#        168997
#
# Disc length: 2465 seconds
#
# Revision: 65
# Processed by: cddbd v1.5.2PL0 Copyright (c) Steve Scherf et al.
# Submitted via: ExactAudioCopy v0.99pb5
#
DISCID=b0099f0c
DTITLE=Cranberries The - Everybody Else Is Doing It So Why Can't We?
DYEAR=1900
DGENRE=
TTITLE0=I Still Do
TTITLE1=Dreams
TTITLE2=Sunday
TTITLE3=Pretty
TTITLE4=Waltzing Back
TTITLE5=Not Sorry
TTITLE6=Linger
TTITLE7=Wanted
TTITLE8=Still Can't...
TTITLE9=I Will Always
TTITLE10=How
TTITLE11=Put Me Down
EXTD=
EXTT0=
EXTT1=
EXTT2=
EXTT3=
EXTT4=
EXTT5=
EXTT6=
EXTT7=
EXTT8=
EXTT9=
EXTT10=
EXTT11=
PLAYORDER=
